<?xml version="1.0" encoding="us-ascii" standalone="no"?><svg xmlns="http://www.w3.org/2000/svg" xmlns:xlink="http://www.w3.org/1999/xlink" contentStyleType="text/css" height="466px" preserveAspectRatio="none" style="width:835px;height:466px;background:#FFFFFF;" version="1.1" viewBox="0 0 835 466" width="835px" zoomAndPan="magnify"><defs/><g><!--cluster ??????--><g id="cluster_&#20837;&#21147;&#12471;&#12473;&#12486;&#12512;"><path d="M8.5,6 L96.125,6 A3.75,3.75 0 0 1 98.625,8.5 L105.625,29.6094 L518.5,29.6094 A2.5,2.5 0 0 1 521,32.1094 L521,456.5 A2.5,2.5 0 0 1 518.5,459 L8.5,459 A2.5,2.5 0 0 1 6,456.5 L6,8.5 A2.5,2.5 0 0 1 8.5,6 " fill="none" style="stroke:#000000;stroke-width:1.5;"/><line style="stroke:#000000;stroke-width:1.5;" x1="6" x2="105.625" y1="29.6094" y2="29.6094"/><text fill="#000000" font-family="sans-serif" font-size="14" font-weight="bold" lengthAdjust="spacing" textLength="86.625" x="10" y="22.5332">&#20837;&#21147;&#12471;&#12473;&#12486;&#12512;</text></g><!--class IGameAction--><g id="elem_IGameAction"><rect codeLine="8" fill="#FFFBD6" height="111.5313" id="IGameAction" rx="2.5" ry="2.5" style="stroke:#333333;stroke-width:0.5;" width="210" x="295" y="204"/><ellipse cx="355.25" cy="225.3516" fill="#B4A7E5" rx="11" ry="11" style="stroke:#181818;stroke-width:1.0;"/><path d="M356.2656,230.2266 L357,230.2266 L357,232.2109 L353.4688,232.2109 L353.4688,230.2266 L354.2031,230.2266 L354.2031,220.7266 L353.4688,220.7266 L353.4688,218.7422 L357,218.7422 L357,220.7266 L356.2656,220.7266 L356.2656,230.2266 Z " fill="#000000"/><text fill="#000000" font-family="sans-serif" font-size="12" font-style="italic" lengthAdjust="spacing" textLength="61" x="385.75" y="221.457">&#171;interface&#187;</text><text fill="#000000" font-family="sans-serif" font-size="14" font-style="italic" lengthAdjust="spacing" textLength="81" x="375.75" y="238.627">IGameAction</text><line style="stroke:#333333;stroke-width:0.5;" x1="296" x2="504" y1="246.7031" y2="246.7031"/><ellipse cx="306" cy="261.0078" fill="none" rx="3" ry="3" style="stroke:#038048;stroke-width:1.0;"/><text fill="#000000" font-family="sans-serif" font-size="14" lengthAdjust="spacing" textLength="184" x="315" y="265.2363">CurrentInputType { get; set; }</text><ellipse cx="306" cy="278.6172" fill="none" rx="3" ry="3" style="stroke:#038048;stroke-width:1.0;"/><text fill="#000000" font-family="sans-serif" font-size="14" lengthAdjust="spacing" textLength="154" x="315" y="282.8457">DefaultInputType { get; }</text><line style="stroke:#333333;stroke-width:0.5;" x1="296" x2="504" y1="289.9219" y2="289.9219"/><ellipse cx="306" cy="304.2266" fill="#84BE84" rx="3" ry="3" style="stroke:#038048;stroke-width:1.0;"/><text fill="#000000" font-family="sans-serif" font-size="14" lengthAdjust="spacing" textLength="60" x="315" y="308.4551">Execute()</text></g><!--class PlayerInput--><g id="elem_PlayerInput"><rect codeLine="14" fill="#FFFBD6" height="100.8281" id="PlayerInput" rx="2.5" ry="2.5" style="stroke:#333333;stroke-width:0.5;" width="208" x="296" y="42"/><ellipse cx="360.25" cy="58" fill="#ADD1B2" rx="11" ry="11" style="stroke:#181818;stroke-width:1.0;"/><path d="M363.7656,59.3594 Q363.5469,62.7344 362.4063,63.8594 Q361.4063,64.8594 360.0313,64.8594 Q358.6563,64.8594 357.6563,63.8594 Q355.9219,62.125 355.9219,58.4844 Q355.9219,54.2656 357.7813,52.3906 Q358.7969,51.3906 360.0938,51.3906 Q361.4688,51.3906 362.2813,52.1875 Q363.75,53.6719 363.6875,56.4375 L361.6875,56.4375 Q361.625,54.1563 360.9688,53.5 Q360.6563,53.1719 360.0938,53.1719 Q359.6094,53.1719 359.2188,53.5625 Q357.9688,54.8125 357.9688,58.3594 Q357.9688,61.4375 359.0313,62.4844 Q359.4844,62.9375 360.0313,62.9375 Q360.5156,62.9375 360.9688,62.4844 Q361.5625,61.9063 361.625,59.3594 L363.7656,59.3594 Z " fill="#000000"/><text fill="#000000" font-family="sans-serif" font-size="14" lengthAdjust="spacing" textLength="71" x="380.75" y="63.7285">PlayerInput</text><line style="stroke:#333333;stroke-width:0.5;" x1="297" x2="503" y1="74" y2="74"/><rect fill="none" height="6" style="stroke:#C82930;stroke-width:1.0;" width="6" x="304" y="85.3047"/><text fill="#000000" font-family="sans-serif" font-size="14" lengthAdjust="spacing" textLength="179" x="316" y="92.5332">_actions: List&lt;IGameAction&gt;</text><line style="stroke:#333333;stroke-width:0.5;" x1="297" x2="503" y1="99.6094" y2="99.6094"/><ellipse cx="307" cy="113.9141" fill="#84BE84" rx="3" ry="3" style="stroke:#038048;stroke-width:1.0;"/><text fill="#000000" font-family="sans-serif" font-size="14" lengthAdjust="spacing" textLength="182" x="316" y="118.1426">RegisterAction(IGameAction)</text><ellipse cx="307" cy="131.5234" fill="#84BE84" rx="3" ry="3" style="stroke:#038048;stroke-width:1.0;"/><text fill="#000000" font-family="sans-serif" font-size="14" lengthAdjust="spacing" textLength="86" x="316" y="135.752">UpdateInput()</text></g><!--class InputConfigManager--><g id="elem_InputConfigManager"><rect codeLine="20" fill="#FFFBD6" height="83.2188" id="InputConfigManager" rx="2.5" ry="2.5" style="stroke:#333333;stroke-width:0.5;" width="184" x="22" y="218.5"/><ellipse cx="47.8" cy="234.5" fill="#ADD1B2" rx="11" ry="11" style="stroke:#181818;stroke-width:1.0;"/><path d="M51.3156,235.8594 Q51.0969,239.2344 49.9563,240.3594 Q48.9563,241.3594 47.5813,241.3594 Q46.2063,241.3594 45.2063,240.3594 Q43.4719,238.625 43.4719,234.9844 Q43.4719,230.7656 45.3313,228.8906 Q46.3469,227.8906 47.6438,227.8906 Q49.0188,227.8906 49.8313,228.6875 Q51.3,230.1719 51.2375,232.9375 L49.2375,232.9375 Q49.175,230.6563 48.5188,230 Q48.2063,229.6719 47.6438,229.6719 Q47.1594,229.6719 46.7688,230.0625 Q45.5188,231.3125 45.5188,234.8594 Q45.5188,237.9375 46.5813,238.9844 Q47.0344,239.4375 47.5813,239.4375 Q48.0656,239.4375 48.5188,238.9844 Q49.1125,238.4063 49.175,235.8594 L51.3156,235.8594 Z " fill="#000000"/><text fill="#000000" font-family="sans-serif" font-size="14" lengthAdjust="spacing" textLength="128" x="64.2" y="240.2285">InputConfigManager</text><line style="stroke:#333333;stroke-width:0.5;" x1="23" x2="205" y1="250.5" y2="250.5"/><line style="stroke:#333333;stroke-width:0.5;" x1="23" x2="205" y1="258.5" y2="258.5"/><ellipse cx="33" cy="272.8047" fill="#84BE84" rx="3" ry="3" style="stroke:#038048;stroke-width:1.0;"/><text fill="#000000" font-family="sans-serif" font-size="14" lengthAdjust="spacing" textLength="158" x="42" y="277.0332">ApplyPreset(InputPreset)</text><ellipse cx="33" cy="290.4141" fill="#84BE84" rx="3" ry="3" style="stroke:#038048;stroke-width:1.0;"/><text fill="#000000" font-family="sans-serif" font-size="14" lengthAdjust="spacing" textLength="109" x="42" y="294.6426">ResetToDefault()</text></g><!--class InputPreset--><g id="elem_InputPreset"><rect codeLine="25" fill="#FFFBD6" height="65.6094" id="InputPreset" rx="2.5" ry="2.5" style="stroke:#333333;stroke-width:0.5;" width="349" x="22.5" y="377"/><ellipse cx="156.75" cy="393" fill="#ADD1B2" rx="11" ry="11" style="stroke:#181818;stroke-width:1.0;"/><path d="M160.2656,394.3594 Q160.0469,397.7344 158.9063,398.8594 Q157.9063,399.8594 156.5313,399.8594 Q155.1563,399.8594 154.1563,398.8594 Q152.4219,397.125 152.4219,393.4844 Q152.4219,389.2656 154.2813,387.3906 Q155.2969,386.3906 156.5938,386.3906 Q157.9688,386.3906 158.7813,387.1875 Q160.25,388.6719 160.1875,391.4375 L158.1875,391.4375 Q158.125,389.1563 157.4688,388.5 Q157.1563,388.1719 156.5938,388.1719 Q156.1094,388.1719 155.7188,388.5625 Q154.4688,389.8125 154.4688,393.3594 Q154.4688,396.4375 155.5313,397.4844 Q155.9844,397.9375 156.5313,397.9375 Q157.0156,397.9375 157.4688,397.4844 Q158.0625,396.9063 158.125,394.3594 L160.2656,394.3594 Z " fill="#000000"/><text fill="#000000" font-family="sans-serif" font-size="14" lengthAdjust="spacing" textLength="72" x="177.25" y="398.7285">InputPreset</text><line style="stroke:#333333;stroke-width:0.5;" x1="23.5" x2="370.5" y1="409" y2="409"/><ellipse cx="33.5" cy="423.3047" fill="none" rx="3" ry="3" style="stroke:#038048;stroke-width:1.0;"/><text fill="#000000" font-family="sans-serif" font-size="14" lengthAdjust="spacing" textLength="323" x="42.5" y="427.5332">Dictionary&lt;ActionType, InputPressType&gt; Overrides</text><line style="stroke:#333333;stroke-width:0.5;" x1="23.5" x2="370.5" y1="434.6094" y2="434.6094"/></g><g id="elem_GMN10"><path d="M540,230.5 L540,256 L505.11,260 L540,264 L540,289.5547 A0,0 0 0 0 540,289.5547 L828,289.5547 A0,0 0 0 0 828,289.5547 L828,240.5 L818,230.5 L540,230.5 A0,0 0 0 0 540,230.5 " fill="#FEFFDD" style="stroke:#181818;stroke-width:0.5;"/><path d="M818,230.5 L818,240.5 L828,240.5 L818,230.5 " fill="#FEFFDD" style="stroke:#181818;stroke-width:0.5;"/><text fill="#000000" font-family="sans-serif" font-size="13" lengthAdjust="spacing" textLength="134" x="546" y="248.9951">&#9660; &#26580;&#36575;&#24615;&#12434;&#20445;&#12388;&#12383;&#12417;&#12395;</text><text fill="#000000" font-family="sans-serif" font-size="13" lengthAdjust="spacing" textLength="174" x="546" y="265.3467">&#12539;DefaultInputType&#65306;&#22522;&#26412;&#35373;&#23450;</text><text fill="#000000" font-family="sans-serif" font-size="13" lengthAdjust="spacing" textLength="267" x="546" y="281.6982">&#12539;CurrentInputType&#65306;&#29694;&#22312;&#12398;&#35373;&#23450;&#65288;&#22793;&#26356;&#21487;&#33021;&#65289;</text></g><!--link PlayerInput to IGameAction--><g id="link_PlayerInput_IGameAction"><path codeLine="30" d="M400,155.16 C400,174.29 400,178.26 400,197.88 " fill="none" id="PlayerInput-IGameAction" style="stroke:#181818;stroke-width:1.0;"/><polygon fill="#181818" points="400,143.16,396,149.16,400,155.16,404,149.16,400,143.16" style="stroke:#181818;stroke-width:1.0;"/><polygon fill="#181818" points="400,203.88,404,194.88,400,198.88,396,194.88,400,203.88" style="stroke:#181818;stroke-width:1.0;"/><text fill="#000000" font-family="sans-serif" font-size="13" lengthAdjust="spacing" textLength="7" x="392.5516" y="164.2045">1</text><text fill="#000000" font-family="sans-serif" font-size="13" lengthAdjust="spacing" textLength="7" x="392.5516" y="193.2123">n</text></g><!--link InputConfigManager to IGameAction--><g id="link_InputConfigManager_IGameAction"><path codeLine="31" d="M206.07,260 C234.4,260 259.8,260 288.93,260 " fill="none" id="InputConfigManager-to-IGameAction" style="stroke:#181818;stroke-width:1.0;stroke-dasharray:7.0,7.0;"/><polygon fill="#181818" points="294.93,260,285.93,256,289.93,260,285.93,264,294.93,260" style="stroke:#181818;stroke-width:1.0;"/><text fill="#000000" font-family="sans-serif" font-size="13" lengthAdjust="spacing" textLength="52" x="224.5" y="253.4951">&#35373;&#23450;&#36969;&#29992;</text></g><!--link InputConfigManager to InputPreset--><g id="link_InputConfigManager_InputPreset"><path codeLine="32" d="M136.9,301.83 C150.14,325.45 163.6348,349.507 175.9748,371.507 " fill="none" id="InputConfigManager-to-InputPreset" style="stroke:#181818;stroke-width:1.0;"/><polygon fill="#181818" points="178.91,376.74,177.9958,366.9337,176.464,372.3792,171.0185,370.8473,178.91,376.74" style="stroke:#181818;stroke-width:1.0;"/><text fill="#000000" font-family="sans-serif" font-size="13" lengthAdjust="spacing" textLength="7" x="132.9919" y="323.2774">1</text><text fill="#000000" font-family="sans-serif" font-size="13" lengthAdjust="spacing" textLength="7" x="167.6595" y="366.1851">1</text></g><!--SRC=[TL91QzH05BxFhtZ4orQxWWWUsYNGxhfIK2nIpsL8tiRGT18c4t4f1REBqdefbD93MraFbQwezIA8TjN_ufZjUjg_u2GJtTbQto6JcVUzx_lUcudNV1PHJjV12MWSmmO15OlKMVDuc32t7WOXXolDPdEnSKldGkuYByzl5a4s2ObK2VKGhEpPw-p5eUnyaftFiljSTbzP9QlF1F8MTH2Mxj1rN7247pAerVwUstQ9pEFQxIVe908hCvEZUi8vCh74eaIij2E43V1Gp4ESVpOdk0QsQ1ByYzCGvJPVTCFB0MqZBv26U7ML5kxYERZhnw9c6BOdCW_GKqdaEb4nG8RdXv5B1HO2PIjJ-aMY7hAMxzsZJ4sGcpDOYAAWlSnHDLWfaFf_nlIWzYjXsV5_5NITITtm2wUKjslQSpwesGawplSst7-CdFiknYMneZP7Pjsmu6grQeF5BFDQoILzNRUdBduEHlttsUd1h_JD-Lx_ieASlE1Mgz458ImK2Dpt7Wa8MrEokSaV-mCOzlP6PxtXqnFPsVtv_QLCZsNQavrKfcyBZEoUNNmauy51rlioF7gdRVs1NNnp2dQ-yoqxwilqL2F7WwtiU7ju-37R-J3gVXqFjWao5tAJv3S0]--></g></svg>